<svg width="120" height="120" viewBox="0 0 120 120" fill="none" xmlns="http://www.w3.org/2000/svg">
<path d="M107.448 82.1153C107.448 84.2329 107.308 86.3204 107.039 88.3649H12.9607C12.6914 86.3204 12.5518 84.2329 12.5518 82.1153C12.5518 81.5434 12.5618 80.9751 12.585 80.4097C13.1136 65.3308 20.6832 52.0436 32.1021 43.7326C33.8543 42.456 35.6958 41.2961 37.617 40.2686C41.5067 38.181 45.7219 36.6252 50.1664 35.688C53.3377 35.0195 56.6288 34.6675 59.9998 34.6675C63.3706 34.6675 66.6617 35.0197 69.833 35.688C74.2779 36.6252 78.4929 38.181 82.3824 40.2686C84.304 41.2961 86.1457 42.456 87.8975 43.7326C99.3162 52.0436 106.886 65.3308 107.414 80.4097C107.438 80.9751 107.448 81.5434 107.448 82.1153Z" fill="#FCB134"/>
<path opacity="0.1" d="M107.486 82.1144C107.486 84.2333 107.345 86.3216 107.078 88.3651H99.2146C99.4842 86.3216 99.6248 84.2333 99.6248 82.1144C99.6248 81.5427 99.6154 80.9755 99.592 80.4105C99.0623 65.3308 91.492 52.044 80.0732 43.7331C78.3225 42.4558 76.4803 41.2956 74.5586 40.269C70.6701 38.1808 66.4539 36.6245 62.0102 35.687C60.0834 35.2815 58.1149 34.9933 56.1084 34.8292C57.4045 34.7214 58.717 34.6675 60.0391 34.6675C63.4094 34.6675 66.7 35.019 69.8711 35.687C74.3172 36.6245 78.5311 38.1808 82.4196 40.269C84.3412 41.2956 86.1836 42.4558 87.9368 43.7331C99.3555 52.044 106.923 65.3308 107.453 80.4105C107.476 80.9753 107.486 81.5425 107.486 82.1144Z" fill="black"/>
<path d="M112.139 81.5806V87.1939C112.139 87.8384 111.612 88.3657 110.968 88.3657H9.0332C8.38867 88.3657 7.86133 87.8384 7.86133 87.1939V81.5806C7.86133 80.936 8.38867 80.4087 9.0332 80.4087H110.968C111.612 80.4087 112.139 80.936 112.139 81.5806Z" fill="#F37021"/>
<path opacity="0.1" d="M112.139 81.5806V87.1939C112.139 87.8384 111.612 88.3657 110.967 88.3657H103.938V80.4087H110.967C111.612 80.4087 112.139 80.936 112.139 81.5806Z" fill="black"/>
<path d="M66.9814 70.4662H53.0193L49.6143 31.6343H70.3864L66.9814 70.4662Z" fill="#F37021"/>
<path d="M44.3025 70.4671H38.0231L32.1025 43.7329C33.8547 42.4562 35.6962 41.2963 37.6174 40.2688L44.3025 70.4671ZM87.8979 43.7329L81.9771 70.4671H75.6972L82.3825 40.2686C84.3044 41.2961 86.1461 42.4562 87.8979 43.7329Z" fill="#F37021"/>
</svg>
