<svg width="64" height="65" viewBox="0 0 64 65" fill="none" xmlns="http://www.w3.org/2000/svg">
<path d="M22.875 32.375V38.375H16.875V32.375L10.525 20.775C10.2375 20.875 9.9375 20.9125 9.6375 20.9125C8.7375 20.9125 7.8625 20.475 7.325 19.7L7.2125 19.5375L5.7125 20.6125L6.6125 22.275L4.025 24.0125L0.625 17.7125L3.3 15.9625L4.2 17.325L6.0125 16.4125L5.575 15.025L10.3 12.3375C11.6875 11.55 13.275 11.125 14.875 11.125C15.8 11.125 16.7125 11.275 17.5875 11.55C18.4625 11.8375 19.2875 12.25 20.0375 12.7875L17.025 14.025C16.225 14.35 15.8125 15.25 16.0875 16.0625C16.1375 16.2375 16.175 16.4125 16.175 16.575C16.175 17 16.0125 17.425 15.7 17.7375L14.9375 18.5L22.875 32.375Z" fill="#3279AF"/>
<path d="M22.875 32.375H16.8625L10.525 20.7875L14.95 18.5L22.875 32.375Z" fill="#E36415"/>
<path d="M4.20001 17.325L5.72501 20.6125L7.22501 19.55L6.01251 16.4125L4.20001 17.325Z" fill="#275E87"/>
<path d="M53.7875 56.875H10.2125C8.3125 56.875 6.7125 55.45 6.4875 53.5625L4.375 35.625H59.625L57.5125 53.5625C57.2875 55.45 55.6875 56.875 53.7875 56.875Z" fill="#2D2966"/>
<path fill-rule="evenodd" clip-rule="evenodd" d="M54.5 8.78125C54.989 8.78125 55.3854 9.17766 55.3854 9.66666V21C55.3854 21.489 54.989 21.8854 54.5 21.8854C54.0109 21.8854 53.6146 21.489 53.6146 21V9.66666C53.6146 9.17766 54.0109 8.78125 54.5 8.78125Z" fill="#FCB134"/>
<path fill-rule="evenodd" clip-rule="evenodd" d="M47.9479 15.3333C47.9479 14.8443 48.3443 14.4479 48.8334 14.4479H60.1667C60.6557 14.4479 61.0521 14.8443 61.0521 15.3333C61.0521 15.8224 60.6557 16.2188 60.1667 16.2188H48.8334C48.3443 16.2188 47.9479 15.8224 47.9479 15.3333Z" fill="#FCB134"/>
<path d="M59.325 38.125H4.675L4.375 35.625V32.5H59.625V35.65L59.325 38.125Z" fill="#F37021"/>
<path d="M0.625 29.375H63.375V31.875C63.375 33.95 61.7 35.625 59.625 35.625H4.375C2.3 35.625 0.625 33.95 0.625 31.875V29.375Z" fill="#1D1B45"/>
<path d="M13.25 35.625V36.25C13.25 39.35 15.775 41.875 18.875 41.875C21.975 41.875 24.5 39.35 24.5 36.25V35.625H13.25ZM39.5 35.625V36.25C39.5 39.35 42.025 41.875 45.125 41.875C48.225 41.875 50.75 39.35 50.75 36.25V35.625H39.5Z" fill="#EAEEF2"/>
<path d="M22 29.375H15.75V36.25C15.75 37.975 17.15 39.375 18.875 39.375C20.6 39.375 22 37.975 22 36.25V29.375ZM42 29.375H48.25V36.25C48.25 37.975 46.85 39.375 45.125 39.375C43.4 39.375 42 37.975 42 36.25V29.375Z" fill="#FCB134"/>
<path d="M45.125 46.875H18.875L15.75 56.875H48.25L45.125 46.875Z" fill="#1D1B45"/>
</svg>
