<svg width="64" height="64" viewBox="0 0 64 64" fill="none" xmlns="http://www.w3.org/2000/svg">
<path d="M22.875 31.875V37.875H16.875V31.875L10.525 20.275C10.2375 20.375 9.9375 20.4125 9.6375 20.4125C8.7375 20.4125 7.8625 19.975 7.325 19.2L7.2125 19.0375L5.7125 20.1125L6.6125 21.775L4.025 23.5125L0.625 17.2125L3.3 15.4625L4.2 16.825L6.0125 15.9125L5.575 14.525L10.3 11.8375C11.6875 11.05 13.275 10.625 14.875 10.625C15.8 10.625 16.7125 10.775 17.5875 11.05C18.4625 11.3375 19.2875 11.75 20.0375 12.2875L17.025 13.525C16.225 13.85 15.8125 14.75 16.0875 15.5625C16.1375 15.7375 16.175 15.9125 16.175 16.075C16.175 16.5 16.0125 16.925 15.7 17.2375L14.9375 18L22.875 31.875Z" fill="#3279AF"/>
<path d="M38.25 16.1625C38.25 17.625 37.6125 19.025 36.5 19.9875C35.3875 20.95 34.75 22.3375 34.75 23.8125V35H29.25V23.8125C29.25 22.35 28.6125 20.95 27.5 19.9875C26.3875 19.025 25.75 17.6375 25.75 16.1625C25.75 13.9875 26.825 11.95 28.6125 10.7125L28.75 10.625V16.575L32 18.575L35.25 16.575V10.625L35.3875 10.7125C37.175 11.95 38.25 13.9875 38.25 16.1625Z" fill="#9CD3FC"/>
<path d="M34.75 23.8125C34.75 22.35 35.3875 20.95 36.5 19.9875C37.2375 19.35 37.7625 18.525 38.0375 17.6125C38.0375 17.6125 32 20.7375 32 24.2C32 27.6625 32 31.875 32 31.875H34.75V23.8125Z" fill="#69BDFB"/>
<path d="M22.875 31.875H16.8625L10.525 20.2875L14.95 18L22.875 31.875Z" fill="#E36415"/>
<path d="M4.19995 16.825L5.72495 20.1125L7.22495 19.05L6.01245 15.9125L4.19995 16.825Z" fill="#275E87"/>
<path d="M53.7875 56.375H10.2125C8.3125 56.375 6.7125 54.95 6.4875 53.0625L4.375 35.125H59.625L57.5125 53.0625C57.2875 54.95 55.6875 56.375 53.7875 56.375Z" fill="#2D2966"/>
<path fill-rule="evenodd" clip-rule="evenodd" d="M52.4445 41.2222C52.7513 41.2222 53 41.471 53 41.7778V48.8889C53 49.1957 52.7513 49.4445 52.4445 49.4445C52.1376 49.4445 51.8889 49.1957 51.8889 48.8889V41.7778C51.8889 41.471 52.1376 41.2222 52.4445 41.2222Z" fill="#FCB134"/>
<path fill-rule="evenodd" clip-rule="evenodd" d="M48.3333 45.3333C48.3333 45.0265 48.582 44.7778 48.8888 44.7778H55.9999C56.3068 44.7778 56.5555 45.0265 56.5555 45.3333C56.5555 45.6402 56.3068 45.8889 55.9999 45.8889H48.8888C48.582 45.8889 48.3333 45.6402 48.3333 45.3333Z" fill="#FCB134"/>
<path d="M59.325 37.625H4.675L4.375 35.125V32H59.625V35.15L59.325 37.625Z" fill="#F37021"/>
<path d="M0.625 28.875H63.375V31.375C63.375 33.45 61.7 35.125 59.625 35.125H4.375C2.3 35.125 0.625 33.45 0.625 31.375V28.875Z" fill="#1D1B45"/>
<path d="M13.25 35.125V35.75C13.25 38.85 15.775 41.375 18.875 41.375C21.975 41.375 24.5 38.85 24.5 35.75V35.125H13.25ZM39.5 35.125V35.75C39.5 38.85 42.025 41.375 45.125 41.375C48.225 41.375 50.75 38.85 50.75 35.75V35.125H39.5Z" fill="#EAEEF2"/>
<path d="M22 28.875H15.75V35.75C15.75 37.475 17.15 38.875 18.875 38.875C20.6 38.875 22 37.475 22 35.75V28.875ZM42 28.875H48.25V35.75C48.25 37.475 46.85 38.875 45.125 38.875C43.4 38.875 42 37.475 42 35.75V28.875Z" fill="#FCB134"/>
<path d="M45.125 46.375H18.875L15.75 56.375H48.25L45.125 46.375Z" fill="#1D1B45"/>
</svg>
