<svg width="201" height="136" viewBox="0 0 201 136" fill="none" xmlns="http://www.w3.org/2000/svg">
<path d="M140.298 119.797H47.7016C43.6641 119.797 40.2641 116.769 39.7859 112.758L35.2969 74.6406H152.703L148.214 112.758C147.736 116.769 144.336 119.797 140.298 119.797Z" fill="#605F6C" fill-opacity="0.49"/>
<path d="M152.066 79.9531H35.9344L35.2969 74.6406V68H152.703V74.6938L152.066 79.9531Z" fill="#D7D7D7"/>
<path d="M27.3281 61.3594H160.672V66.6719C160.672 71.0813 157.113 74.6406 152.703 74.6406H35.2969C30.8875 74.6406 27.3281 71.0813 27.3281 66.6719V61.3594Z" fill="#B1B1B7"/>
<path d="M54.1562 74.6406V75.9688C54.1562 82.5562 59.5219 87.9219 66.1094 87.9219C72.6969 87.9219 78.0625 82.5562 78.0625 75.9688V74.6406H54.1562ZM109.938 74.6406V75.9688C109.938 82.5562 115.303 87.9219 121.891 87.9219C128.478 87.9219 133.844 82.5562 133.844 75.9688V74.6406H109.938Z" fill="#95959B"/>
<path d="M72.75 61.3594H59.4688V75.9688C59.4688 79.6344 62.4437 82.6094 66.1094 82.6094C69.775 82.6094 72.75 79.6344 72.75 75.9688V61.3594ZM115.25 61.3594H128.531V75.9688C128.531 79.6344 125.556 82.6094 121.891 82.6094C118.225 82.6094 115.25 79.6344 115.25 75.9688V61.3594Z" fill="#D7D7D7"/>
<path d="M121.891 98.5469H66.1094L59.4688 119.797H128.531L121.891 98.5469Z" fill="#95959B"/>
<path fill-rule="evenodd" clip-rule="evenodd" d="M177.883 83.6676C182.142 85.3038 186.607 86.6621 190.192 89.5997C190.406 89.7739 190.72 89.7434 190.896 89.5296C191.07 89.3151 191.04 89.0002 190.826 88.8241C187.157 85.8183 182.599 84.4055 178.241 82.7318C177.983 82.6315 177.693 82.7619 177.595 83.0204C177.495 83.2782 177.626 83.5673 177.883 83.6676Z" fill="#B1B1B7"/>
<path fill-rule="evenodd" clip-rule="evenodd" d="M179.716 77.2784C181.494 76.5211 183.284 76.1173 185.214 76.2889C185.49 76.3136 185.732 76.1097 185.757 75.8346C185.781 75.5589 185.577 75.3153 185.303 75.2913C183.205 75.1044 181.259 75.5338 179.327 76.3564C179.072 76.4642 178.953 76.7583 179.061 77.0133C179.169 77.2674 179.464 77.3868 179.716 77.2784Z" fill="#B1B1B7"/>
<path fill-rule="evenodd" clip-rule="evenodd" d="M180.779 62.4671C182.142 60.5766 183.937 59.3577 186.214 58.8271C186.482 58.7644 186.65 58.495 186.587 58.2255C186.525 57.9566 186.256 57.7886 185.987 57.8513C183.467 58.4393 181.478 59.7871 179.968 61.8802C179.806 62.1039 179.858 62.4181 180.081 62.5796C180.305 62.742 180.618 62.6915 180.779 62.4671Z" fill="#B1B1B7"/>
<path fill-rule="evenodd" clip-rule="evenodd" d="M160.633 52.0566C160.115 52.3572 159.622 52.7047 159.168 53.0997C158.965 53.2754 158.58 53.6653 158.404 54.0543C158.215 54.4682 158.232 54.8805 158.537 55.2034C158.943 55.6319 159.348 55.7468 159.707 55.7033C160.053 55.6618 160.385 55.4562 160.667 55.1225C161.205 54.4845 161.564 53.3437 161.647 52.6494C162.18 52.3853 162.737 52.1721 163.311 52.0103C167.58 50.8053 172.264 53.4816 174.826 58.4739C175.723 60.2217 175.426 63.1144 174.743 66.1064C173.681 70.7652 171.608 75.6525 171.047 77.1008C170.909 77.4588 170.867 77.6853 170.871 77.7349C170.884 77.9771 171.021 78.0876 171.123 78.1473C171.271 78.2321 171.408 78.2469 171.529 78.2303C171.692 78.2069 171.85 78.1196 171.973 77.9415C172.04 77.8428 172.101 77.6941 172.155 77.5314C172.191 77.4181 172.211 77.2877 172.262 77.2156C172.592 76.7541 172.947 76.3155 173.3 75.872C174.481 74.3795 175.794 73.0543 177.19 71.7606C181.623 67.6496 186.071 63.2217 191.764 60.9156C192.02 60.8121 192.144 60.5202 192.04 60.2636C191.938 60.0076 191.647 59.8837 191.39 59.9868C185.582 62.338 181.032 66.833 176.511 71.0252C175.324 72.1258 174.195 73.2492 173.153 74.4737C174.098 71.9871 175.309 68.5107 175.941 65.2781C176.504 62.4032 176.586 59.7146 175.715 58.0156C172.908 52.5467 167.715 49.7255 163.04 51.0462C162.54 51.1876 162.048 51.3642 161.574 51.5765C160.876 47.3452 157.197 44.4371 152.901 44.8096C152.626 44.8331 152.422 45.0763 152.446 45.3515C152.471 45.6274 152.712 45.8314 152.988 45.8079C156.859 45.4722 160.153 48.1787 160.633 52.0566ZM160.486 53.3374C160.257 53.4989 160.036 53.6724 159.822 53.8568C159.708 53.9562 159.503 54.152 159.369 54.3675C159.338 54.4182 159.306 54.5033 159.292 54.5429C159.399 54.6535 159.49 54.7207 159.587 54.7085C159.709 54.6941 159.805 54.5921 159.904 54.4753C160.152 54.1823 160.353 53.7482 160.486 53.3374Z" fill="#B1B1B7"/>
<path fill-rule="evenodd" clip-rule="evenodd" d="M14.6183 28.5811C14.0251 28.6672 13.4358 28.8237 12.8527 29.0586C10.8062 29.8824 9.76589 32.4974 9.78618 35.1328C9.80634 37.7672 10.8873 40.3679 12.8659 41.1654C13.9972 41.6216 14.9159 41.5846 15.6495 41.2414C16.3792 40.8997 16.9351 40.2432 17.3249 39.3999C18.4103 37.049 18.1915 33.2096 17.3913 31.5498C17.0207 30.7823 16.5982 30.0403 16.1323 29.3249C18.5843 29.4475 21.0662 30.7763 23.395 32.6786C28.4564 36.8128 32.7883 43.6902 34.5507 47.5137C34.6454 47.7192 34.8884 47.8082 35.0939 47.7135C35.2993 47.6189 35.3894 47.3757 35.2947 47.1702C33.4973 43.271 29.0751 36.2606 23.9133 32.0447C21.2471 29.8666 18.3805 28.4413 15.5711 28.5021C11.8333 23.2781 5.78326 19.3787 0.683738 16.0354C0.495453 15.911 0.240794 15.9642 0.116561 16.1535C-0.00664729 16.3427 0.0453772 16.5965 0.234688 16.7207C5.1256 19.9278 10.9293 23.6332 14.6183 28.5811ZM15.1609 29.3407C14.4887 29.3975 13.819 29.5521 13.1577 29.8191C11.3865 30.5318 10.587 32.8453 10.6046 35.1267C10.616 36.525 10.9409 37.9218 11.5823 38.9666C11.9853 39.6235 12.5125 40.1392 13.1728 40.4049C14.0388 40.7542 14.7414 40.7622 15.302 40.499C15.8668 40.2352 16.2795 39.71 16.5805 39.0566C17.5702 36.9141 17.3817 33.4169 16.6531 31.9062C16.2236 31.015 15.7219 30.1614 15.1609 29.3407Z" fill="#B1B1B7"/>
</svg>
