<svg width="64" height="64" viewBox="0 0 64 64" fill="none" xmlns="http://www.w3.org/2000/svg">
<path d="M22.875 28.875V34.875H16.875V28.875L10.525 17.275C10.2375 17.375 9.9375 17.4125 9.6375 17.4125C8.7375 17.4125 7.8625 16.975 7.325 16.2L7.2125 16.0375L5.7125 17.1125L6.6125 18.775L4.025 20.5125L0.625 14.2125L3.3 12.4625L4.2 13.825L6.0125 12.9125L5.575 11.525L10.3 8.8375C11.6875 8.05 13.275 7.625 14.875 7.625C15.8 7.625 16.7125 7.775 17.5875 8.05C18.4625 8.3375 19.2875 8.75 20.0375 9.2875L17.025 10.525C16.225 10.85 15.8125 11.75 16.0875 12.5625C16.1375 12.7375 16.175 12.9125 16.175 13.075C16.175 13.5 16.0125 13.925 15.7 14.2375L14.9375 15L22.875 28.875Z" fill="#3279AF"/>
<path d="M59.625 9.725L57.4875 15.45L54.65 15.7625L44.5 28.875V35.125H38.25V28.875L51.575 13.6L51.3375 10.575L57.075 7.625L59.625 9.725Z" fill="#9CD3FC"/>
<path d="M38.25 13.1625C38.25 14.625 37.6125 16.025 36.5 16.9875C35.3875 17.95 34.75 19.3375 34.75 20.8125V32H29.25V20.8125C29.25 19.35 28.6125 17.95 27.5 16.9875C26.3875 16.025 25.75 14.6375 25.75 13.1625C25.75 10.9875 26.825 8.95 28.6125 7.7125L28.75 7.625V13.575L32 15.575L35.25 13.575V7.625L35.3875 7.7125C37.175 8.95 38.25 10.9875 38.25 13.1625Z" fill="#9CD3FC"/>
<path d="M34.75 20.8125C34.75 19.35 35.3875 17.95 36.5 16.9875C37.2375 16.35 37.7625 15.525 38.0375 14.6125C38.0375 14.6125 32 17.7375 32 21.2C32 24.6625 32 28.875 32 28.875H34.75V20.8125Z" fill="#69BDFB"/>
<path d="M53.7875 56.375H10.2125C8.3125 56.375 6.7125 54.95 6.4875 53.0625L4.375 35.125H59.625L57.5125 53.0625C57.2875 54.95 55.6875 56.375 53.7875 56.375Z" fill="#2D2966"/>
<path d="M59.325 37.625H4.675L4.375 35.125V32H59.625V35.15L59.325 37.625Z" fill="#F37021"/>
<path d="M0.625 28.875H63.375V31.375C63.375 33.45 61.7 35.125 59.625 35.125H4.375C2.3 35.125 0.625 33.45 0.625 31.375V28.875Z" fill="#1D1B45"/>
<path d="M13.25 35.125V35.75C13.25 38.85 15.775 41.375 18.875 41.375C21.975 41.375 24.5 38.85 24.5 35.75V35.125H13.25ZM39.5 35.125V35.75C39.5 38.85 42.025 41.375 45.125 41.375C48.225 41.375 50.75 38.85 50.75 35.75V35.125H39.5Z" fill="#EAEEF2"/>
<path d="M22 28.875H15.75V35.75C15.75 37.475 17.15 38.875 18.875 38.875C20.6 38.875 22 37.475 22 35.75V28.875ZM42 28.875H48.25V35.75C48.25 37.475 46.85 38.875 45.125 38.875C43.4 38.875 42 37.475 42 35.75V28.875Z" fill="#FCB134"/>
<path d="M45.125 46.375H18.875L15.75 56.375H48.25L45.125 46.375Z" fill="#1D1B45"/>
<path d="M22.875 28.875H16.8625L10.525 17.2875L14.95 15L22.875 28.875Z" fill="#E36415"/>
<path d="M42 28.875L53.0375 15L54.65 15.7625L44.5 28.875H42Z" fill="#69BDFB"/>
<path d="M4.19995 13.825L5.72495 17.1125L7.22495 16.05L6.01245 12.9125L4.19995 13.825Z" fill="#275E87"/>
</svg>
