<svg width="142" height="131" viewBox="0 0 142 131" fill="none" xmlns="http://www.w3.org/2000/svg">
<g clip-path="url(#clip0_25_927)">
<path fill-rule="evenodd" clip-rule="evenodd" d="M100.372 86.1653H101V98.4132H100.372V163.355C100.372 165.997 99.3227 168.53 97.455 170.397C95.5874 172.265 93.0544 173.314 90.4132 173.314H53.9587C52.6509 173.314 51.3559 173.056 50.1477 172.556C48.9394 172.055 47.8416 171.322 46.9168 170.397C45.9921 169.472 45.2585 168.375 44.7581 167.166C44.2576 165.958 44 164.663 44 163.355V68.9587C44 66.3175 45.0492 63.7844 46.9168 61.9168C48.7845 60.0492 51.3175 59 53.9587 59H90.4132C91.721 59 93.016 59.2576 94.2242 59.7581C95.4325 60.2585 96.5303 60.9921 97.4551 61.9168C98.3798 62.8416 99.1134 63.9394 99.6138 65.1477C100.114 66.3559 100.372 67.6509 100.372 68.9587V86.1653ZM86.0565 61.5909H90.8151C91.7917 61.5909 92.7588 61.7833 93.6611 62.157C94.5634 62.5308 95.3832 63.0786 96.0738 63.7692C96.7644 64.4598 97.3122 65.2796 97.686 66.1819C98.0597 67.0842 98.2521 68.0513 98.2521 69.0279V163.286C98.2521 164.263 98.0597 165.23 97.686 166.132C97.3122 167.034 96.7644 167.854 96.0738 168.545C95.3832 169.235 94.5634 169.783 93.6611 170.157C92.7588 170.531 91.7917 170.723 90.8151 170.723H54.185C53.2084 170.723 52.2413 170.531 51.339 170.157C50.4367 169.783 49.6168 169.235 48.9262 168.545C48.2356 167.854 47.6878 167.034 47.3141 166.132C46.9403 165.23 46.748 164.263 46.748 163.286V69.0279C46.748 68.0513 46.9403 67.0842 47.3141 66.1819C47.6878 65.2796 48.2356 64.4598 48.9262 63.7692C49.6168 63.0786 50.4367 62.5308 51.339 62.157C52.2413 61.7833 53.2084 61.5909 54.185 61.5909H58.6295C58.4107 62.1274 58.3271 62.7095 58.3862 63.2859C58.4454 63.8623 58.6453 64.4153 58.9685 64.8962C59.2917 65.3771 59.7282 65.7712 60.2396 66.0436C60.7509 66.3161 61.3214 66.4586 61.9009 66.4587H82.7852C83.3646 66.4586 83.9351 66.3161 84.4464 66.0436C84.9578 65.7712 85.3943 65.3771 85.7175 64.8962C86.0407 64.4153 86.2407 63.8623 86.2998 63.2859C86.3589 62.7095 86.2754 62.1274 86.0565 61.5909Z" fill="#A83030"/>
</g>
<rect x="9.04688" y="2.04688" width="126.906" height="126.906" rx="63.4531" stroke="#A83030" stroke-width="4.09375"/>
<line x1="1.75198" y1="119.437" x2="140.752" y2="8.43716" stroke="#A83030" stroke-width="4"/>
<defs>
<clipPath id="clip0_25_927">
<rect x="7" width="131" height="131" rx="65.5" fill="white"/>
</clipPath>
</defs>
</svg>
