<svg width="132" height="131" viewBox="0 0 132 131" fill="none" xmlns="http://www.w3.org/2000/svg">
<g clip-path="url(#clip0_1012_10914)">
<path fill-rule="evenodd" clip-rule="evenodd" d="M93.8719 86.1653H94.5V98.4132H93.8719V163.355C93.8719 165.997 92.8227 168.53 90.955 170.397C89.0874 172.265 86.5544 173.314 83.9132 173.314H47.4587C46.1509 173.314 44.8559 173.056 43.6477 172.556C42.4394 172.055 41.3416 171.322 40.4168 170.397C39.4921 169.472 38.7585 168.375 38.2581 167.166C37.7576 165.958 37.5 164.663 37.5 163.355V68.9587C37.5 66.3175 38.5492 63.7844 40.4168 61.9168C42.2845 60.0492 44.8175 59 47.4587 59H83.9132C85.221 59 86.516 59.2576 87.7242 59.7581C88.9325 60.2585 90.0303 60.9921 90.9551 61.9168C91.8798 62.8416 92.6134 63.9394 93.1138 65.1477C93.6143 66.3559 93.8719 67.6509 93.8719 68.9587V86.1653ZM79.5565 61.5909H84.3151C85.2917 61.5909 86.2588 61.7833 87.1611 62.157C88.0634 62.5308 88.8832 63.0786 89.5738 63.7692C90.2644 64.4598 90.8122 65.2796 91.186 66.1819C91.5597 67.0842 91.7521 68.0513 91.7521 69.0279V163.286C91.7521 164.263 91.5597 165.23 91.186 166.132C90.8122 167.034 90.2644 167.854 89.5738 168.545C88.8832 169.235 88.0634 169.783 87.1611 170.157C86.2588 170.531 85.2917 170.723 84.3151 170.723H47.685C46.7084 170.723 45.7413 170.531 44.839 170.157C43.9367 169.783 43.1168 169.235 42.4262 168.545C41.7356 167.854 41.1878 167.034 40.8141 166.132C40.4403 165.23 40.248 164.263 40.248 163.286V69.0279C40.248 68.0513 40.4403 67.0842 40.8141 66.1819C41.1878 65.2796 41.7356 64.4598 42.4262 63.7692C43.1168 63.0786 43.9367 62.5308 44.839 62.157C45.7413 61.7833 46.7084 61.5909 47.685 61.5909H52.1295C51.9107 62.1274 51.8271 62.7095 51.8862 63.2859C51.9454 63.8623 52.1453 64.4153 52.4685 64.8962C52.7917 65.3771 53.2282 65.7712 53.7396 66.0436C54.2509 66.3161 54.8214 66.4586 55.4009 66.4587H76.2852C76.8646 66.4586 77.4351 66.3161 77.9464 66.0436C78.4578 65.7712 78.8943 65.3771 79.2175 64.8962C79.5407 64.4153 79.7407 63.8623 79.7998 63.2859C79.8589 62.7095 79.7754 62.1274 79.5565 61.5909Z" fill="#2D2966"/>
</g>
<rect x="2.54688" y="2.04688" width="126.906" height="126.906" rx="63.4531" stroke="#2D2966" stroke-width="4.09375"/>
<defs>
<clipPath id="clip0_1012_10914">
<rect x="0.5" width="131" height="131" rx="65.5" fill="white"/>
</clipPath>
</defs>
</svg>
