<svg width="64" height="64" viewBox="0 0 64 64" fill="none" xmlns="http://www.w3.org/2000/svg">
<g clip-path="url(#clip0_13_739)">
<g clip-path="url(#clip1_13_739)">
<path d="M57.6586 18.4669L53.3285 15.9669C51.7336 15.046 49.6959 15.592 48.7751 17.1869L45.4418 22.9604L55.5454 28.7938L58.8787 23.0203C59.7996 21.4253 59.2536 19.3877 57.6586 18.4669ZM54.1319 21.242L52.6886 20.4086C52.2916 20.1795 52.1544 19.6672 52.3835 19.2703C52.6127 18.8734 53.125 18.7361 53.5219 18.9653L54.9653 19.7986C55.3622 20.0278 55.4995 20.54 55.2703 20.9369C55.0411 21.3339 54.5289 21.4711 54.1319 21.242ZM53.5836 14.6421C53.4014 14.5369 53.2587 14.3634 53.1974 14.1447C53.0739 13.7013 53.3326 13.2417 53.7759 13.1176C55.1352 12.7385 56.5961 12.9628 57.7985 13.7471C58.8437 14.4295 59.5902 15.4606 59.9013 16.6512C60.0179 17.0963 59.7512 17.5517 59.3057 17.668C58.8608 17.7843 58.4054 17.5185 58.2888 17.0725C58.0824 16.2833 57.5849 15.5981 56.8881 15.1431C56.0891 14.6236 55.1218 14.472 54.2246 14.7231C53.9998 14.7856 53.7707 14.7501 53.5836 14.6421Z" fill="#FCB134"/>
<path d="M52.937 12.2287C52.7537 12.1229 52.6107 11.9482 52.5503 11.7282C52.428 11.284 52.6889 10.8257 53.1325 10.7036C55.1705 10.1432 57.3664 10.4868 59.155 11.6435C60.7195 12.6618 61.8411 14.2097 62.3142 16.0023C62.4317 16.4475 62.1666 16.9033 61.7215 17.0208C61.2765 17.1388 60.8203 16.8727 60.703 16.4281C60.3352 15.0355 59.463 13.8329 58.2474 13.0412C56.8625 12.1458 55.1549 11.8759 53.5749 12.3103C53.3507 12.3722 53.1234 12.3363 52.937 12.2287Z" fill="#FCB134"/>
</g>
<path d="M40.8131 21.2941H23.1868V13.6098C23.1868 12.0569 24.3538 10.8392 25.8465 10.8392H38.1534C39.6442 10.8392 40.8131 12.0549 40.8131 13.6098V21.2941ZM24.9599 19.447H39.0399V13.6098C39.0425 13.4879 39.0213 13.3667 38.9777 13.2535C38.934 13.1404 38.8688 13.0376 38.7859 12.9515C38.703 12.8653 38.6042 12.7976 38.4955 12.7523C38.3868 12.7071 38.2704 12.6853 38.1534 12.6882H25.8446C25.7276 12.6853 25.6112 12.7071 25.5025 12.7523C25.3938 12.7976 25.295 12.8653 25.2121 12.9515C25.1292 13.0376 25.064 13.1404 25.0203 13.2535C24.9767 13.3667 24.9555 13.4879 24.9581 13.6098L24.9599 19.447Z" fill="black"/>
<path d="M5.64709 23.7882H58.353V26.3941H5.64709V23.7882Z" fill="#F39F03"/>
<path d="M56.8282 30.9745L54.9308 49.8373C54.8445 50.746 54.4375 51.5891 53.7886 52.2031C53.1397 52.8172 52.295 53.1584 51.4183 53.1608H12.5986C11.7206 53.1558 10.8752 52.8138 10.2241 52.2003C9.57295 51.5868 9.16177 50.7448 9.06916 49.8353L7.17175 30.9745H56.8282Z" fill="#2D2966"/>
<path d="M58.353 26.3921V29.1274C58.3515 29.6168 58.1642 30.0857 57.832 30.4318C57.4998 30.7778 57.0496 30.9729 56.5798 30.9745H7.42027C6.95045 30.9729 6.5003 30.7778 6.16809 30.4318C5.83588 30.0857 5.64858 29.6168 5.64709 29.1274V26.3921H58.353ZM58.353 23.7882H5.64709L6.23062 22.6804L7.8118 19.6314C8.43298 18.4314 9.63768 17.6921 10.9327 17.6921H53.0673C54.3624 17.6921 55.569 18.4314 56.1902 19.6333L57.7676 22.6804L58.353 23.7882Z" fill="#F37021"/>
<path d="M51.2941 22.6804V27.5019C51.2926 27.9913 51.1053 28.4602 50.7731 28.8063C50.4409 29.1523 49.9908 29.3474 49.5209 29.349H45.088C44.6182 29.3474 44.168 29.1523 43.8358 28.8063C43.5036 28.4602 43.3163 27.9913 43.3148 27.5019V22.6784C43.3148 21.6647 44.1129 20.8333 45.088 20.8333H49.5209C50.496 20.8333 51.2941 21.6647 51.2941 22.6804Z" fill="white"/>
<path d="M45.088 22.6804H49.521V27.5H45.088V22.6804Z" fill="#EAEEF2"/>
<path d="M20.6871 22.6804V27.5019C20.6856 27.9917 20.4981 28.4609 20.1654 28.807C19.8328 29.1531 19.3822 29.348 18.9121 29.349H14.4791C14.0093 29.3474 13.5591 29.1523 13.2269 28.8063C12.8947 28.4602 12.7074 27.9913 12.7059 27.5019V22.6784C12.7059 21.6647 13.504 20.8333 14.4791 20.8333H18.9121C19.8871 20.8333 20.6871 21.6647 20.6871 22.6804Z" fill="white"/>
<path d="M14.479 22.6804H18.9119V27.5H14.479V22.6804ZM27.0117 44.1373H36.9882C37.3445 44.8659 37.8824 45.4812 38.5456 45.9187C39.2088 46.3562 39.9728 46.5998 40.7575 46.6238C41.5421 46.6479 42.3185 46.4516 43.0053 46.0555C43.692 45.6594 44.2638 45.0781 44.6607 44.3725H41.8371C41.7495 44.3724 41.6631 44.3517 41.5842 44.3119C41.5054 44.2722 41.4361 44.2145 41.3816 44.1431L40.0809 42.4471C39.9987 42.3395 39.954 42.2061 39.954 42.0686C39.954 41.9312 39.9987 41.7978 40.0809 41.6902L41.3816 39.9922C41.436 39.9206 41.5053 39.8629 41.5842 39.8231C41.663 39.7834 41.7495 39.7628 41.8371 39.7627H44.6607C44.2639 39.058 43.6925 38.4774 43.0063 38.0816C42.3202 37.6858 41.5445 37.4895 40.7605 37.5131C39.9765 37.5368 39.2131 37.7796 38.5501 38.216C37.8871 38.6525 37.3489 39.2666 36.9919 39.9941H27.0079C26.6514 39.2661 26.1134 38.6515 25.4504 38.2146C24.7873 37.7777 24.0237 37.5347 23.2394 37.511C22.4552 37.4874 21.6793 37.6839 20.9931 38.0801C20.3069 38.4763 19.7356 39.0575 19.3392 39.7627H22.1628C22.2504 39.7629 22.3368 39.7836 22.4156 39.8233C22.4945 39.8631 22.5638 39.9208 22.6183 39.9922L23.919 41.6902C24.0012 41.7978 24.0459 41.9312 24.0459 42.0686C24.0459 42.2061 24.0012 42.3395 23.919 42.4471L22.6183 44.1431C22.5638 44.2145 22.4945 44.2722 22.4156 44.3119C22.3368 44.3517 22.2504 44.3724 22.1628 44.3725H19.3392C19.7359 45.0786 20.3078 45.6603 20.9947 46.0568C21.6817 46.4532 22.4584 46.6497 23.2434 46.6256C24.0284 46.6016 24.7927 46.3578 25.4561 45.92C26.1195 45.4821 26.6556 44.8663 27.0117 44.1373Z" fill="#EAEEF2"/>
</g>
<defs>
<clipPath id="clip0_13_739">
<rect width="64" height="64" fill="white"/>
</clipPath>
<clipPath id="clip1_13_739">
<rect width="20" height="20" fill="white" transform="translate(51 5) rotate(30)"/>
</clipPath>
</defs>
</svg>
