<svg width="64" height="64" viewBox="0 0 64 64" fill="none" xmlns="http://www.w3.org/2000/svg">
<path d="M55.8712 38.6086C53.2188 37.5691 51.3309 35.0239 51.3309 32.0107C51.3286 30.5799 51.7616 29.1822 52.5726 28.0034C53.3836 26.8245 54.5341 25.9204 55.8712 25.4111C56.7625 25.0717 57.2287 24.1376 56.9107 23.2266C56.5928 22.3336 56.232 21.4441 55.8283 20.5957C55.6329 20.189 55.2846 19.876 54.8595 19.7248C54.4343 19.5735 53.9666 19.5964 53.5582 19.7884C52.2506 20.374 50.7963 20.5495 49.387 20.2919C47.9776 20.0343 46.6794 19.3555 45.6636 18.3452C44.654 17.3293 43.9758 16.0314 43.7185 14.6224C43.4612 13.2135 43.6368 11.7596 44.2222 10.4524C44.6045 9.58259 44.2847 8.58594 43.4149 8.18228C42.5507 7.7744 41.6654 7.41309 40.7625 7.0999C39.8713 6.78198 38.9389 7.24815 38.5996 8.13942C38.0902 9.47654 37.1861 10.627 36.0073 11.438C34.8284 12.249 33.4308 12.6821 31.9999 12.6797C28.9868 12.6797 26.4398 10.7918 25.4003 8.13942C25.0609 7.24815 24.1285 6.78198 23.2373 7.0999C22.3246 7.41783 21.4547 7.77862 20.5849 8.18228C19.7347 8.58594 19.4168 9.58259 19.799 10.4524C20.3794 11.761 20.5521 13.2141 20.2947 14.6222C20.0373 16.0304 19.3617 17.3284 18.3559 18.347C17.3398 19.357 16.0416 20.0354 14.6322 20.2927C13.2229 20.55 11.7687 20.3742 10.4613 19.7884C9.59322 19.4062 8.59479 19.7259 8.19292 20.5957C7.78926 21.4441 7.40703 22.3354 7.0891 23.2266C6.79261 24.1376 7.25878 25.0503 8.15005 25.4111C9.48717 25.9204 10.6377 26.8245 11.4486 28.0034C12.2596 29.1822 12.6927 30.5799 12.6903 32.0107C12.6903 35.0239 10.8024 37.5691 8.15005 38.6104C7.25878 38.9497 6.79261 39.8821 7.0891 40.7733C7.40703 41.6664 7.78926 42.5559 8.19292 43.4043C8.59658 44.2741 9.59322 44.5938 10.4631 44.2116C11.7706 43.626 13.225 43.4505 14.6343 43.7081C16.0436 43.9657 17.3418 44.6445 18.3576 45.6548C19.3628 46.6734 20.0379 47.9712 20.295 49.379C20.552 50.7868 20.3792 52.2394 19.799 53.5476C19.4168 54.4174 19.7347 55.4141 20.5849 55.8159C21.4547 56.2214 22.3246 56.5822 23.2373 56.9001C24.1285 57.218 25.0609 56.7518 25.4003 55.8606C26.4398 53.2082 28.9868 51.3185 31.9999 51.3185C33.431 51.3163 34.8288 51.7496 36.0077 52.5609C37.1865 53.3723 38.0905 54.5231 38.5996 55.8606C38.9389 56.7518 39.8713 57.218 40.7625 56.9001C41.6752 56.5822 42.5665 56.2214 43.4149 55.8177C44.2865 55.4141 44.6045 54.4174 44.2222 53.5476C43.6316 52.241 43.4533 50.7854 43.7112 49.3749C43.969 47.9645 44.6507 46.6661 45.6654 45.653C46.6813 44.6433 47.9792 43.9652 49.3882 43.7079C50.7972 43.4506 52.251 43.6262 53.5582 44.2116C53.9644 44.4022 54.429 44.4268 54.853 44.28C55.277 44.1332 55.627 43.8267 55.8283 43.4257C56.232 42.5559 56.5928 41.6646 56.9107 40.7733C57.2287 39.8821 56.7625 38.9479 55.8712 38.6086ZM31.9999 45.4422C24.5733 45.4422 18.547 39.4373 18.547 32.0107C18.5456 30.2437 18.8926 28.4937 19.5681 26.8608C20.2437 25.228 21.2346 23.7444 22.4841 22.4949C23.7336 21.2454 25.2172 20.2545 26.85 19.5789C28.4829 18.9034 30.2329 18.5564 31.9999 18.5578C33.767 18.5564 35.517 18.9034 37.1498 19.5789C38.7826 20.2545 40.2662 21.2454 41.5157 22.4949C42.7652 23.7444 43.7561 25.228 44.4317 26.8608C45.1073 28.4937 45.4543 30.2437 45.4529 32.0107C45.4529 39.4373 39.4265 45.4422 31.9999 45.4422Z" fill="#2D2966"/>
<path d="M35.2737 41.336C35.2255 41.3592 35.1791 41.3824 35.1434 41.3949L48.532 54.7818L54.7923 48.5197L41.3947 35.1203C41.3822 35.1561 41.359 35.1793 41.3465 35.215C42.261 32.3769 41.8163 29.1637 39.998 26.7131C38.889 25.197 37.3569 24.0424 35.5939 23.3941C33.8309 22.7459 31.9156 22.6329 30.0887 23.0695C29.8279 23.1338 29.7422 23.4696 29.9315 23.6589L33.1143 26.8417C33.7341 27.4649 34.082 28.308 34.082 29.1869C34.082 30.0658 33.7341 30.9089 33.1143 31.5321L31.5426 33.1038C30.9195 33.723 30.0767 34.0706 29.1983 34.0706C28.3199 34.0706 27.4771 33.723 26.854 33.1038L23.6694 29.921C23.4819 29.7317 23.1425 29.8174 23.08 30.0782C22.6948 31.664 22.7242 33.3223 23.1652 34.8935C23.6063 36.4648 24.4442 37.8961 25.5984 39.0498C26.8398 40.2911 28.4021 41.1625 30.1106 41.5662C31.8191 41.97 33.608 41.8903 35.2737 41.336Z" fill="#F37021"/>
<path d="M53.058 50.254L43.681 40.8769C43.498 40.693 43.2806 40.5469 43.041 40.4473C42.8015 40.3477 42.5446 40.2964 42.2851 40.2964C42.0257 40.2964 41.7688 40.3477 41.5292 40.4473C41.2897 40.5469 41.0722 40.693 40.8893 40.8769C40.7053 41.0599 40.5593 41.2774 40.4596 41.5169C40.36 41.7565 40.3087 42.0133 40.3087 42.2728C40.3087 42.5322 40.36 42.7891 40.4596 43.0287C40.5593 43.2682 40.7053 43.4857 40.8893 43.6686L50.2663 53.0457L53.058 50.254Z" fill="#FCB134"/>
</svg>
